<mxfile host="Electron" modified="2024-02-13T17:28:33.281Z" agent="Mozilla/5.0 (X11; Linux x86_64) AppleWebKit/537.36 (KHTML, like Gecko) draw.io/23.0.2 Chrome/120.0.6099.109 Electron/28.1.0 Safari/537.36" etag="eNN8kL3_808dJ1rRSOET" version="23.0.2" type="device">
  <diagram id="kgpKYQtTHZ0yAKxKKP6v" name="Page-1">
    <mxGraphModel dx="1434" dy="843" grid="1" gridSize="10" guides="1" tooltips="1" connect="1" arrows="1" fold="1" page="1" pageScale="0.8" pageWidth="1169" pageHeight="827" math="0" shadow="0">
      <root>
        <mxCell id="0" />
        <mxCell id="1" parent="0" />
        <mxCell id="bFPEbu5A7oio5TbXO354-19" value="VPC" style="sketch=0;outlineConnect=0;gradientColor=none;html=1;whiteSpace=wrap;fontSize=14;fontStyle=0;shape=mxgraph.aws4.group;grIcon=mxgraph.aws4.group_vpc;strokeColor=#879196;fillColor=none;verticalAlign=top;align=left;spacingLeft=30;fontColor=#879196;dashed=0;" vertex="1" parent="1">
          <mxGeometry x="68" y="250" width="399.5" height="330" as="geometry" />
        </mxCell>
        <mxCell id="bFPEbu5A7oio5TbXO354-26" style="edgeStyle=orthogonalEdgeStyle;rounded=0;orthogonalLoop=1;jettySize=auto;html=1;fontSize=14;" edge="1" parent="1" source="bFPEbu5A7oio5TbXO354-7" target="bFPEbu5A7oio5TbXO354-8">
          <mxGeometry relative="1" as="geometry" />
        </mxCell>
        <mxCell id="bFPEbu5A7oio5TbXO354-7" value="" style="fontColor=#0066CC;verticalAlign=top;verticalLabelPosition=bottom;labelPosition=center;align=center;html=1;outlineConnect=0;fillColor=#CCCCCC;strokeColor=#6881B3;gradientColor=none;gradientDirection=north;strokeWidth=2;shape=mxgraph.networks.security_camera;fontSize=14;" vertex="1" parent="1">
          <mxGeometry x="197.75" y="20" width="100" height="75" as="geometry" />
        </mxCell>
        <mxCell id="bFPEbu5A7oio5TbXO354-25" style="edgeStyle=orthogonalEdgeStyle;rounded=0;orthogonalLoop=1;jettySize=auto;html=1;fontSize=14;" edge="1" parent="1" source="bFPEbu5A7oio5TbXO354-8" target="bFPEbu5A7oio5TbXO354-3">
          <mxGeometry relative="1" as="geometry" />
        </mxCell>
        <mxCell id="bFPEbu5A7oio5TbXO354-8" value="" style="sketch=0;outlineConnect=0;fontColor=#232F3E;gradientColor=none;fillColor=#01A88D;strokeColor=none;dashed=0;verticalLabelPosition=bottom;verticalAlign=top;align=center;html=1;fontSize=14;fontStyle=0;aspect=fixed;shape=mxgraph.aws4.transfer_for_ftp_resource;" vertex="1" parent="1">
          <mxGeometry x="209.75" y="160" width="76" height="78" as="geometry" />
        </mxCell>
        <mxCell id="bFPEbu5A7oio5TbXO354-9" value="S3&lt;br style=&quot;font-size: 14px;&quot;&gt;Camera uploads" style="outlineConnect=0;dashed=0;verticalLabelPosition=bottom;verticalAlign=top;align=center;html=1;shape=mxgraph.aws3.s3;fillColor=#E05243;gradientColor=none;fontSize=14;" vertex="1" parent="1">
          <mxGeometry x="400" y="672" width="76.5" height="93" as="geometry" />
        </mxCell>
        <mxCell id="bFPEbu5A7oio5TbXO354-15" value="Public subnet" style="points=[[0,0],[0.25,0],[0.5,0],[0.75,0],[1,0],[1,0.25],[1,0.5],[1,0.75],[1,1],[0.75,1],[0.5,1],[0.25,1],[0,1],[0,0.75],[0,0.5],[0,0.25]];outlineConnect=0;gradientColor=none;html=1;whiteSpace=wrap;fontSize=14;fontStyle=0;container=1;pointerEvents=0;collapsible=0;recursiveResize=0;shape=mxgraph.aws4.group;grIcon=mxgraph.aws4.group_security_group;grStroke=0;strokeColor=#7AA116;fillColor=#F2F6E8;verticalAlign=top;align=left;spacingLeft=30;fontColor=#248814;dashed=0;" vertex="1" parent="1">
          <mxGeometry x="117.5" y="290" width="290" height="260" as="geometry" />
        </mxCell>
        <mxCell id="bFPEbu5A7oio5TbXO354-6" value="Security group" style="fillColor=none;strokeColor=#DD3522;verticalAlign=top;fontStyle=0;fontColor=#DD3522;whiteSpace=wrap;html=1;fontSize=14;" vertex="1" parent="bFPEbu5A7oio5TbXO354-15">
          <mxGeometry x="6.5" y="40" width="263.5" height="190" as="geometry" />
        </mxCell>
        <mxCell id="bFPEbu5A7oio5TbXO354-17" value="Auto Scaling group" style="points=[[0,0],[0.25,0],[0.5,0],[0.75,0],[1,0],[1,0.25],[1,0.5],[1,0.75],[1,1],[0.75,1],[0.5,1],[0.25,1],[0,1],[0,0.75],[0,0.5],[0,0.25]];outlineConnect=0;gradientColor=none;html=1;whiteSpace=wrap;fontSize=14;fontStyle=0;container=1;pointerEvents=0;collapsible=0;recursiveResize=0;shape=mxgraph.aws4.groupCenter;grIcon=mxgraph.aws4.group_auto_scaling_group;grStroke=1;strokeColor=#D86613;fillColor=none;verticalAlign=top;align=center;fontColor=#D86613;dashed=1;spacingTop=25;" vertex="1" parent="bFPEbu5A7oio5TbXO354-15">
          <mxGeometry x="73.25" y="71" width="130" height="149" as="geometry" />
        </mxCell>
        <mxCell id="bFPEbu5A7oio5TbXO354-3" value="Amazon EC2" style="sketch=0;outlineConnect=0;fontColor=#232F3E;gradientColor=none;strokeColor=#ffffff;fillColor=#232F3E;dashed=0;verticalLabelPosition=middle;verticalAlign=bottom;align=center;html=1;whiteSpace=wrap;fontSize=14;fontStyle=1;spacing=3;shape=mxgraph.aws4.productIcon;prIcon=mxgraph.aws4.ec2;" vertex="1" parent="bFPEbu5A7oio5TbXO354-17">
          <mxGeometry x="19" y="49" width="80" height="100" as="geometry" />
        </mxCell>
        <mxCell id="bFPEbu5A7oio5TbXO354-20" style="edgeStyle=orthogonalEdgeStyle;rounded=0;orthogonalLoop=1;jettySize=auto;html=1;fontSize=14;" edge="1" parent="1" source="bFPEbu5A7oio5TbXO354-3" target="bFPEbu5A7oio5TbXO354-9">
          <mxGeometry relative="1" as="geometry" />
        </mxCell>
        <mxCell id="bFPEbu5A7oio5TbXO354-23" style="edgeStyle=orthogonalEdgeStyle;rounded=0;orthogonalLoop=1;jettySize=auto;html=1;fontSize=14;" edge="1" parent="1" source="bFPEbu5A7oio5TbXO354-4" target="bFPEbu5A7oio5TbXO354-3">
          <mxGeometry relative="1" as="geometry" />
        </mxCell>
        <mxCell id="bFPEbu5A7oio5TbXO354-24" value="" style="group;fontSize=14;" vertex="1" connectable="0" parent="1">
          <mxGeometry x="40" y="646" width="190" height="198" as="geometry" />
        </mxCell>
        <mxCell id="bFPEbu5A7oio5TbXO354-21" value="AWS Cloud" style="sketch=0;outlineConnect=0;gradientColor=none;html=1;whiteSpace=wrap;fontSize=14;fontStyle=0;shape=mxgraph.aws4.group;grIcon=mxgraph.aws4.group_aws_cloud;strokeColor=#AAB7B8;fillColor=none;verticalAlign=top;align=left;spacingLeft=30;fontColor=#AAB7B8;dashed=0;" vertex="1" parent="bFPEbu5A7oio5TbXO354-24">
          <mxGeometry width="190" height="198" as="geometry" />
        </mxCell>
        <mxCell id="bFPEbu5A7oio5TbXO354-4" value="patch manager" style="sketch=0;outlineConnect=0;fontColor=#232F3E;gradientColor=none;fillColor=#E7157B;strokeColor=none;dashed=0;verticalLabelPosition=bottom;verticalAlign=top;align=center;html=1;fontSize=14;fontStyle=0;aspect=fixed;pointerEvents=1;shape=mxgraph.aws4.patch_manager;" vertex="1" parent="bFPEbu5A7oio5TbXO354-24">
          <mxGeometry x="50" y="122.75" width="52.5" height="52.5" as="geometry" />
        </mxCell>
        <mxCell id="bFPEbu5A7oio5TbXO354-5" value="SSM" style="sketch=0;points=[[0,0,0],[0.25,0,0],[0.5,0,0],[0.75,0,0],[1,0,0],[0,1,0],[0.25,1,0],[0.5,1,0],[0.75,1,0],[1,1,0],[0,0.25,0],[0,0.5,0],[0,0.75,0],[1,0.25,0],[1,0.5,0],[1,0.75,0]];points=[[0,0,0],[0.25,0,0],[0.5,0,0],[0.75,0,0],[1,0,0],[0,1,0],[0.25,1,0],[0.5,1,0],[0.75,1,0],[1,1,0],[0,0.25,0],[0,0.5,0],[0,0.75,0],[1,0.25,0],[1,0.5,0],[1,0.75,0]];outlineConnect=0;fontColor=#232F3E;fillColor=#E7157B;strokeColor=#ffffff;dashed=0;verticalLabelPosition=bottom;verticalAlign=top;align=center;html=1;fontSize=14;fontStyle=0;aspect=fixed;shape=mxgraph.aws4.resourceIcon;resIcon=mxgraph.aws4.systems_manager;" vertex="1" parent="bFPEbu5A7oio5TbXO354-24">
          <mxGeometry x="40" y="22.75" width="52.5" height="52.5" as="geometry" />
        </mxCell>
        <mxCell id="bFPEbu5A7oio5TbXO354-28" value="" style="group;fontSize=14;" vertex="1" connectable="0" parent="1">
          <mxGeometry x="590" y="460" width="320" height="350" as="geometry" />
        </mxCell>
        <mxCell id="bFPEbu5A7oio5TbXO354-27" value="AWS Cloud" style="sketch=0;outlineConnect=0;gradientColor=none;html=1;whiteSpace=wrap;fontSize=14;fontStyle=0;shape=mxgraph.aws4.group;grIcon=mxgraph.aws4.group_aws_cloud;strokeColor=#AAB7B8;fillColor=none;verticalAlign=top;align=left;spacingLeft=30;fontColor=#AAB7B8;dashed=0;" vertex="1" parent="bFPEbu5A7oio5TbXO354-28">
          <mxGeometry width="320" height="350" as="geometry" />
        </mxCell>
        <mxCell id="bFPEbu5A7oio5TbXO354-10" value="cloudfront" style="outlineConnect=0;dashed=0;verticalLabelPosition=bottom;verticalAlign=top;align=center;html=1;shape=mxgraph.aws3.cloudfront;fillColor=#F58536;gradientColor=none;fontSize=14;" vertex="1" parent="bFPEbu5A7oio5TbXO354-28">
          <mxGeometry x="198.75" y="70" width="76.5" height="93" as="geometry" />
        </mxCell>
        <mxCell id="bFPEbu5A7oio5TbXO354-11" value="S3&lt;br style=&quot;font-size: 14px;&quot;&gt;website" style="outlineConnect=0;dashed=0;verticalLabelPosition=bottom;verticalAlign=top;align=center;html=1;shape=mxgraph.aws3.s3;fillColor=#E05243;gradientColor=none;fontSize=14;" vertex="1" parent="bFPEbu5A7oio5TbXO354-28">
          <mxGeometry x="54.5" y="209" width="76.5" height="93" as="geometry" />
        </mxCell>
        <mxCell id="bFPEbu5A7oio5TbXO354-12" value="Cognito" style="outlineConnect=0;dashed=0;verticalLabelPosition=bottom;verticalAlign=top;align=center;html=1;shape=mxgraph.aws3.cognito;fillColor=#AD688B;gradientColor=none;fontSize=14;" vertex="1" parent="bFPEbu5A7oio5TbXO354-28">
          <mxGeometry x="54.5" y="70" width="76.5" height="93" as="geometry" />
        </mxCell>
        <mxCell id="bFPEbu5A7oio5TbXO354-30" style="edgeStyle=orthogonalEdgeStyle;rounded=0;orthogonalLoop=1;jettySize=auto;html=1;fontSize=14;" edge="1" parent="1" source="bFPEbu5A7oio5TbXO354-29" target="bFPEbu5A7oio5TbXO354-27">
          <mxGeometry relative="1" as="geometry" />
        </mxCell>
        <mxCell id="bFPEbu5A7oio5TbXO354-29" value="views3 website" style="sketch=0;html=1;aspect=fixed;strokeColor=none;shadow=0;fillColor=#3B8DF1;verticalAlign=top;labelPosition=center;verticalLabelPosition=bottom;shape=mxgraph.gcp2.website;fontSize=14;" vertex="1" parent="1">
          <mxGeometry x="621" y="260" width="100" height="97" as="geometry" />
        </mxCell>
        <mxCell id="bFPEbu5A7oio5TbXO354-31" style="edgeStyle=orthogonalEdgeStyle;rounded=0;orthogonalLoop=1;jettySize=auto;html=1;entryX=1;entryY=0.5;entryDx=0;entryDy=0;entryPerimeter=0;fontSize=14;" edge="1" parent="1" source="bFPEbu5A7oio5TbXO354-29" target="bFPEbu5A7oio5TbXO354-9">
          <mxGeometry relative="1" as="geometry" />
        </mxCell>
        <mxCell id="bFPEbu5A7oio5TbXO354-32" value="&lt;font style=&quot;font-size: 30px;&quot;&gt;General&lt;br style=&quot;&quot;&gt;overview&lt;br style=&quot;font-size: 20px;&quot;&gt;&lt;/font&gt;" style="text;html=1;strokeColor=none;fillColor=none;align=center;verticalAlign=middle;whiteSpace=wrap;rounded=0;fontSize=20;" vertex="1" parent="1">
          <mxGeometry x="40" y="50" width="60" height="30" as="geometry" />
        </mxCell>
        <mxCell id="bFPEbu5A7oio5TbXO354-33" value="All provisioned with CDK" style="text;html=1;strokeColor=none;fillColor=none;align=center;verticalAlign=middle;whiteSpace=wrap;rounded=0;fontSize=20;" vertex="1" parent="1">
          <mxGeometry x="680" y="110" width="180" height="30" as="geometry" />
        </mxCell>
      </root>
    </mxGraphModel>
  </diagram>
</mxfile>
